<svg fill="#000000" xmlns="http://www.w3.org/2000/svg"  viewBox="0 0 50 50" width="100px" height="100px"><path d="M35.633,18.29c0,0-0.386-0.711-1.122-0.686c-0.105,0.003-0.219,0.019-0.339,0.057c-0.955,0.302-0.273,1.082-0.273,1.082 s0.275-0.178,0.678-0.304C34.979,18.314,35.633,18.29,35.633,18.29z"/><path d="M41.516,31.24c-1.659-0.075-3.019-2.365-3.296-3.371c-0.277-1.006-1.003-4.198-1.003-4.198s-0.627,0.98-1.734,0.955 c-1.106-0.025-1.033-0.326-1.989-0.427c-0.956-0.101-1.409,0.3-2.667-1.184c-1.257-1.484-3.068-2.763-3.696-2.939 s-2.009-1.309-3.467-0.202c-1.458,1.106-2.515,1.03-3.093,1.03c-0.578,0-2.262-0.476-2.363-1.809 c-0.101-1.333-0.304-1.734-0.304-1.734s-0.099,1.029-0.048,1.632s0.228,0.957,0.378,1.008c0.151,0.05,0.427,0.201,0.075,0.779 c-0.352,0.578-0.555,0.952-0.48,1.782c0.075,0.83,0.756,2.767,2.491,3.371c1.735,0.603,3.872,0.631,6.939,0.405 c3.068-0.226,5.306-0.48,7.494,0.576c2.188,1.056,3.821,3.245,4.475,4.427c0.654,1.182,0.93,3.144,0.779,4.149 c-0.082,0.548-0.245,1.164-0.377,1.617c1.708-2.061,2.971-4.494,3.691-7.149C43.144,30.463,42.68,31.292,41.516,31.24z"/><path d="M18.886,36.568c-0.956-0.05-2.112-0.55-2.112-0.55s-0.249,0.35-0.299,0.752c-0.05,0.402-0.253,0.603-0.656,1.056 c-0.402,0.453-0.652,0.049-0.4-0.202c0.251-0.251,0.3-0.451,0.15-0.752c-0.151-0.302-0.253-0.251-0.304-1.307 c-0.05-1.056-0.902-1.609-1.254-1.408c-0.352,0.201-0.304,0.248-0.405,0.902c-0.101,0.654-0.25,1.261-0.854,1.663 s-1.461,0.248-2.165-0.255c-0.704-0.503-0.753-1.204,0.304-0.651c1.056,0.553,1.258-0.453,1.157-1.408s0-2.517,0-2.517 s-0.908-1.407-1.461-2.262c-0.553-0.855-1.056-2.411-1.056-2.411s-0.752,1.003-1.707,1.003c-0.955,0-1.61-0.805-1.61-0.805 l0.805-0.198c0.402-0.101,0.302-0.355,0.704-0.858c0.402-0.503,0.502-2.261,0.502-3.921c0-1.659,0.354-3.975,0.656-4.629 c0.302-0.654,1.157-1.606,1.157-1.606s-0.805-0.657-0.805-1.562c0-0.114,0.013-0.195,0.027-0.27 c-1.658,2.448-2.749,5.305-3.113,8.381c-0.028,0.264-0.05,0.516-0.07,0.758C6.038,24.004,6.001,24.498,6.001,25 c0,4.997,1.953,9.535,5.118,12.93c0.799,0.74,1.578,1.303,2.188,1.608c1.71,0.855,3.819,1.206,5.579,0.955 c1.76-0.251,2.717-0.654,2.667-1.76C21.502,37.627,19.841,36.618,18.886,36.568z"/><path d="M9.835,14.545c0.101,0.402,0.352,0.25,0.704,0.15s0.754-1.057,1.056-1.61c0.302-0.553,1.104-1.206,2.161-1.91 c1.056-0.704,4.427-0.757,4.427-0.757s-0.803-0.352-1.91-0.704c-0.796-0.253-0.938-0.762-0.957-1.03 c-2.314,1.379-4.313,3.226-5.858,5.423C9.605,14.114,9.78,14.325,9.835,14.545z"/><path d="M17.931,9.062c0.805,0.05,2.667,0.4,2.667,0.4s-0.603-0.501-1.307-1.104c-0.508-0.435-0.416-1.049-0.325-1.359 c-0.262,0.088-0.519,0.185-0.776,0.284c0.047,0.021,0.095,0.044,0.141,0.067c0.201,0.101,0.154,0.603,0.154,0.603 s-0.605-0.352-0.906-0.352c-0.302,0-0.353,0.052-0.906,0.656C16.119,8.861,17.126,9.012,17.931,9.062z"/><path d="M28.844,16.908c-0.572-0.253-1.079-0.351-1.522-0.348c-1.583,0.012-2.35,1.302-2.35,1.302s1.687,0.553,2.592,0.955 s1.28,1.081,3.393,2.539s4.048,1.509,4.048,1.509l-0.075-1.76c0,0-0.578-0.102-2.187-1.082S31.458,18.065,28.844,16.908z"/><path d="M25,2C12.317,2,2,12.318,2,25s10.317,23,23,23s23-10.318,23-23S37.683,2,25,2z M25,46.014 C13.413,46.014,3.986,36.587,3.986,25C3.986,13.413,13.413,3.986,25,3.986S46.014,13.413,46.014,25 C46.014,36.587,36.588,46.014,25,46.014z"/><path d="M25.913,12.785c-0.061-0.002-0.118-0.005-0.176,0c-0.874,0.073-1.408,0.902-1.408,0.902s0.982-0.035,1.346-0.035 c0.365,0,0.943,0.277,1.672,0.616c0.729,0.339,1.61,0.15,1.61,0.15s-0.527-0.378-1.307-0.818S26.894,12.823,25.913,12.785z"/><path d="M25,6c-0.595,0-1.182,0.036-1.764,0.089c0.024,0.046,0.048,0.091,0.076,0.157c0.151,0.352-0.202,1.003-0.202,1.003 s-0.133-0.77-0.703-1.051c-0.512,0.07-1.02,0.152-1.518,0.262c-0.632,0.441-0.959,1.205-0.093,1.897 c1.257,1.006,1.211,0.253,1.663,0.554c0.453,0.302,0.802,1.053,1.355,0.198c0.553-0.855,1.307-0.853,1.056-0.4 c-0.251,0.453-0.804,0.752,0.453,0.752h1.808c0.855,0,1.612,0.05,1.914,0.352c0.302,0.302,0.453,1.36,0.453,1.36 s1.355-0.303,2.411,0.502c1.056,0.805,1.36,2.165,1.36,2.165s-2.316-0.102-1.461,0.854c0.855,0.956,0.606,0.752,1.109,1.104 c0.503,0.352,0.956,0.455,1.408,0.405c0.453-0.05,0.35-0.05,1.104,0.352c0.754,0.402,1.609,0.804,2.112,0.603 c0.503-0.201,1.107-0.554,1.861,0.502c0.754,1.056,0.806,1.206,0.304,1.206c-0.503,0-0.654-0.248-0.352,0.255 c0.302,0.503,0.503,0.401,0,0.854c-0.503,0.453,0.072,0.576-0.079,0.928c-0.151,0.352-0.326,0.277-0.326,0.277 s0.101,0.856-0.075,1.082c-0.176,0.226-0.752,0.378-0.752,0.378s0.072-1.135-0.607-1.135c-0.679,0-0.902-0.022-0.902-0.022 s1.08,0.78,1.558,2.037c0.478,1.257,0.755,2.438,1.157,3.494c0.402,1.056,1.331,1.508,2.438,1.483 c1.106-0.025,1.333-0.831,1.333-1.61c0-0.779-0.126-0.827-0.453-1.078c-0.327-0.251-0.629-0.33-0.629-0.33s0.58-0.353,1.536,0.251 c0.191,0.12,0.305,0.305,0.384,0.513C43.964,25.83,44,25.42,44,25C44,14.523,35.476,6,25,6z"/><path d="M36.834,22.839c0.131-0.229,0.003-0.552-0.286-0.717c-0.108-0.062-0.225-0.089-0.334-0.092 c-0.023-0.001-0.044-0.002-0.066,0c-0.154,0.012-0.289,0.086-0.361,0.211c-0.131,0.229-0.003,0.547,0.286,0.713 C36.362,23.119,36.703,23.068,36.834,22.839z"/><path d="M41.591,29.506c-0.352,0-1.333-0.304-1.333-0.304s0.429,1.029,1.435,1.104c0.967,0.073,1.67-0.659,1.723-0.716 c0.112-0.448,0.209-0.901,0.289-1.361c-0.127,0.251-0.276,0.457-0.428,0.572C42.648,29.279,41.943,29.506,41.591,29.506z"/></svg>