<?xml version="1.0" standalone="no"?>
<!DOCTYPE svg PUBLIC "-//W3C//DTD SVG 20010904//EN"
 "http://www.w3.org/TR/2001/REC-SVG-20010904/DTD/svg10.dtd">
<svg version="1.0" xmlns="http://www.w3.org/2000/svg"
 width="1280.000000pt" height="1088.000000pt" viewBox="0 0 1280.000000 1088.000000"
 preserveAspectRatio="xMidYMid meet">
<metadata>
Created by potrace 1.15, written by Peter Selinger 2001-2017
</metadata>
<g transform="translate(0.000000,1088.000000) scale(0.100000,-0.100000)"
fill="#000000" stroke="none">
<path d="M3603 10851 c-231 -80 -562 -344 -705 -561 -100 -152 -178 -329 -178
-404 0 -31 -12 -46 -137 -163 -355 -330 -444 -429 -642 -708 -51 -71 -123
-173 -161 -225 -38 -52 -97 -141 -131 -197 -34 -57 -63 -103 -64 -103 -2 0 6
23 16 51 49 129 74 350 58 522 -31 334 -193 733 -333 818 -125 76 -215 -71
-216 -351 -1 -243 53 -499 145 -697 86 -185 247 -393 294 -380 17 4 9 -18 -48
-132 -117 -233 -219 -511 -271 -741 -12 -52 -23 -99 -24 -105 -2 -5 -5 60 -9
145 -9 230 -52 389 -162 597 -278 525 -621 696 -591 294 16 -207 139 -531 275
-721 115 -162 268 -308 382 -365 54 -28 75 -31 83 -12 7 15 2 -33 -24 -207
-24 -159 -47 -425 -56 -639 l-6 -159 -25 74 c-35 105 -124 272 -198 369 -112
150 -324 339 -484 433 -135 79 -265 108 -318 71 -58 -41 -50 -142 23 -290 133
-270 426 -564 689 -690 93 -45 203 -83 265 -91 57 -8 60 -13 60 -134 0 -85 22
-344 41 -475 17 -125 50 -319 55 -327 3 -4 3 -8 1 -8 -2 0 -26 33 -52 73 -148
223 -333 383 -605 521 -233 119 -415 157 -508 107 -52 -28 -54 -94 -7 -187 88
-175 362 -417 610 -538 180 -88 359 -137 513 -140 l83 -1 9 -40 c19 -77 79
-253 189 -557 61 -168 111 -308 111 -310 0 -3 -48 43 -107 102 -173 171 -354
278 -608 360 -312 99 -548 98 -590 -3 -26 -62 7 -129 113 -228 160 -151 442
-298 694 -363 146 -37 429 -46 516 -15 18 6 34 10 36 8 7 -9 396 -778 396
-783 0 -3 -37 19 -82 48 -249 162 -529 240 -858 241 -240 0 -360 -48 -360
-145 0 -142 408 -349 795 -405 183 -27 399 -11 549 39 42 14 78 26 80 26 3 0
49 -60 105 -133 123 -165 282 -356 395 -475 47 -49 86 -92 86 -95 0 -3 -37 11
-82 32 -197 91 -331 121 -575 128 -251 7 -459 -24 -584 -88 -50 -25 -99 -83
-99 -118 0 -174 565 -330 987 -271 163 22 353 84 442 145 l50 33 20 -22 c11
-11 166 -145 345 -296 178 -151 323 -276 321 -278 -1 -2 -27 4 -57 13 -158 46
-423 59 -599 31 -323 -53 -576 -164 -635 -278 -41 -80 44 -158 214 -196 121
-27 470 -24 614 6 224 46 463 155 587 267 l40 37 128 -80 c169 -105 362 -209
525 -284 73 -33 134 -61 135 -62 1 0 -62 -1 -140 -2 -88 0 -177 -7 -234 -17
-272 -50 -618 -218 -756 -367 -96 -103 -98 -169 -7 -220 39 -22 60 -25 164
-28 167 -6 343 25 549 97 228 79 478 249 582 395 46 65 35 64 190 8 145 -52
358 -117 519 -157 70 -18 124 -35 120 -37 -5 -3 -27 -9 -49 -13 -117 -21 -307
-103 -442 -190 -284 -184 -475 -396 -477 -528 -1 -41 3 -52 26 -72 81 -70 298
-29 563 105 157 79 245 137 351 228 120 105 274 299 306 389 7 18 17 33 24 33
10 0 249 -47 342 -67 31 -7 28 -14 -24 -47 -90 -57 -234 -211 -282 -303 -40
-74 35 -165 121 -149 40 8 63 31 107 111 66 121 132 180 288 259 l72 36 73
-36 c155 -79 221 -138 287 -259 44 -80 67 -103 107 -111 86 -16 161 75 121
149 -48 92 -192 246 -282 303 -52 33 -55 40 -23 47 92 20 331 67 341 67 7 0
17 -15 24 -33 18 -50 102 -173 179 -262 127 -146 274 -254 488 -360 268 -132
473 -169 553 -100 80 69 -14 247 -228 433 -205 178 -488 329 -670 358 -53 9
-59 20 -12 27 75 13 342 90 545 158 115 39 210 69 211 67 28 -46 105 -133 159
-179 214 -184 464 -297 787 -354 100 -18 288 -20 345 -4 258 72 38 338 -433
523 -183 72 -404 112 -572 104 -49 -2 -88 -3 -87 -2 1 1 62 29 135 62 163 75
356 179 525 285 l129 79 31 -29 c112 -104 318 -207 518 -257 267 -68 667 -58
821 20 182 92 90 236 -222 348 -295 107 -666 127 -928 51 -30 -9 -56 -15 -57
-13 -2 2 143 127 321 278 179 151 334 285 346 297 l21 22 31 -24 c65 -50 245
-117 386 -144 327 -64 805 11 998 156 37 28 62 71 62 107 0 31 -51 91 -99 116
-197 100 -672 121 -941 41 -104 -31 -171 -56 -238 -90 -34 -17 -62 -29 -62
-25 0 3 41 49 91 103 120 126 265 299 390 466 56 74 103 135 105 135 2 0 38
-12 80 -26 150 -50 366 -66 549 -39 387 56 795 263 795 405 0 97 -120 145
-360 145 -329 -1 -609 -79 -857 -241 -46 -29 -83 -51 -83 -48 0 5 389 774 396
783 2 2 18 -2 36 -8 53 -19 243 -25 356 -12 179 21 308 61 492 152 164 82 272
153 362 238 106 99 139 166 113 228 -44 105 -291 102 -616 -6 -244 -82 -411
-183 -581 -351 -60 -59 -108 -104 -108 -102 0 2 50 142 111 310 110 304 170
480 189 557 l9 40 83 1 c154 3 333 52 513 140 248 121 522 363 610 538 38 75
43 112 20 155 -21 42 -62 55 -158 49 -102 -7 -231 -49 -376 -123 -274 -140
-458 -299 -606 -522 -47 -71 -59 -86 -50 -60 8 23 44 243 59 367 23 186 36
344 36 445 0 50 4 95 8 101 4 6 28 14 55 18 114 17 283 91 429 188 116 77 316
276 410 408 127 178 194 347 168 425 -16 49 -44 65 -110 65 -143 -1 -392 -159
-612 -388 -141 -147 -253 -328 -312 -502 l-24 -72 -6 159 c-22 530 -90 950
-212 1313 -105 309 -276 647 -456 898 -40 56 -115 162 -167 235 -201 282 -289
379 -644 710 -125 117 -137 132 -137 163 0 76 -79 254 -179 404 -208 314 -705
640 -885 580 -113 -37 -77 -197 97 -433 91 -124 275 -301 393 -380 125 -83
266 -150 387 -183 51 -14 102 -31 114 -37 46 -26 244 -198 373 -325 l135 -132
-54 20 c-179 69 -424 101 -610 81 -488 -53 -839 -243 -716 -389 73 -86 342
-135 623 -113 228 19 358 51 538 135 106 50 187 100 244 152 23 21 44 33 49
28 191 -219 301 -363 418 -549 82 -129 151 -251 137 -243 -5 4 -40 27 -78 52
-132 89 -310 162 -474 195 -424 86 -852 16 -852 -139 0 -79 125 -171 330 -245
359 -128 811 -126 1072 6 33 17 62 29 63 27 8 -7 89 -188 132 -293 56 -134
125 -337 160 -465 46 -171 52 -167 -71 -44 -172 173 -337 272 -587 355 -183
60 -304 81 -434 77 -127 -4 -169 -20 -190 -72 -25 -60 6 -126 107 -222 161
-154 448 -302 701 -362 98 -23 134 -26 292 -26 116 -1 192 3 212 11 18 6 35 9
37 5 10 -17 56 -320 70 -462 19 -199 31 -486 21 -536 l-7 -39 -22 70 c-50 157
-166 336 -311 481 -314 315 -735 499 -810 353 -20 -39 -19 -68 8 -141 82 -227
403 -552 683 -691 160 -80 405 -145 439 -117 13 11 15 5 15 -46 0 -116 -40
-476 -76 -683 -18 -108 -55 -242 -64 -236 -4 3 -11 26 -15 52 -12 80 -64 232
-116 338 -149 302 -506 650 -698 681 -203 33 -164 -264 84 -636 118 -178 246
-309 405 -415 81 -54 211 -119 268 -134 23 -7 42 -13 42 -15 0 -3 -131 -480
-158 -576 -10 -36 -47 -137 -83 -225 l-64 -160 -6 140 c-3 77 -9 154 -13 170
-4 17 -12 50 -18 75 -59 255 -225 557 -407 740 -153 154 -253 179 -308 77 -27
-50 -22 -196 10 -323 71 -278 205 -528 381 -711 102 -108 179 -170 263 -214
41 -22 57 -36 54 -47 -1 -10 -50 -109 -106 -222 -145 -286 -386 -686 -371
-615 50 249 27 541 -64 785 -147 397 -353 625 -461 509 -40 -43 -51 -87 -56
-229 -10 -263 75 -584 217 -824 67 -112 173 -240 247 -297 l62 -47 -70 -94
c-61 -82 -519 -591 -525 -585 -2 1 6 36 17 77 67 255 64 494 -12 787 -118 461
-329 594 -418 263 -44 -162 -46 -449 -6 -664 39 -205 156 -463 263 -579 l26
-27 -35 -36 c-26 -27 -576 -485 -658 -548 -8 -6 -1 14 16 44 43 76 100 234
125 343 26 116 36 435 18 572 -32 248 -104 385 -201 385 -117 0 -231 -263
-270 -622 -14 -126 -6 -346 16 -448 30 -141 85 -293 126 -351 18 -26 19 -33 8
-40 -58 -40 -255 -153 -355 -206 -116 -61 -414 -196 -420 -191 -1 2 18 29 42
62 135 178 219 379 271 651 23 116 25 406 4 478 -19 65 -68 117 -110 117 -44
0 -78 -20 -132 -77 -64 -66 -103 -128 -159 -246 -127 -270 -185 -562 -161
-800 11 -102 30 -208 46 -247 4 -12 -13 -22 -77 -42 -81 -26 -116 -35 -388
-98 -74 -17 -181 -42 -237 -56 -57 -13 -107 -24 -112 -24 -5 0 42 51 103 112
160 161 258 316 356 562 73 185 102 395 65 482 -20 47 -71 70 -123 53 -176
-55 -452 -411 -566 -729 -45 -125 -67 -244 -73 -396 l-5 -142 -32 -5 c-17 -3
-149 -28 -294 -56 l-262 -51 -263 51 c-144 28 -277 53 -294 56 l-33 6 0 111
c0 113 -16 228 -46 339 -92 334 -407 767 -596 817 -52 15 -99 -6 -121 -53 -38
-80 -14 -268 59 -465 91 -244 229 -460 390 -611 48 -45 82 -81 75 -81 -6 0
-57 11 -114 24 -56 14 -201 48 -322 76 -206 48 -328 81 -366 101 -15 8 -15 14
2 74 82 296 23 693 -152 1035 -113 220 -235 322 -317 264 -134 -94 -96 -643
69 -989 33 -70 108 -192 175 -283 l17 -23 -52 20 c-177 70 -406 186 -612 308
l-126 75 39 77 c39 77 86 216 110 326 20 92 17 445 -5 562 -57 302 -156 493
-256 493 -24 0 -48 -8 -65 -21 -90 -71 -146 -301 -146 -601 0 -253 37 -429
131 -627 30 -63 42 -98 32 -89 -10 8 -94 77 -188 154 -275 224 -448 369 -473
397 l-24 25 52 63 c59 75 158 269 194 384 61 192 86 439 67 636 -21 207 -68
331 -138 364 -31 15 -36 14 -76 -3 -55 -25 -97 -78 -152 -194 -77 -163 -131
-397 -142 -613 -6 -123 13 -291 47 -414 12 -41 19 -75 18 -77 -7 -7 -459 496
-524 583 l-72 97 44 29 c90 59 243 254 318 406 102 204 166 475 166 702 0 145
-17 217 -60 261 -136 135 -418 -264 -527 -746 -21 -94 -24 -427 -4 -504 7 -29
11 -55 8 -58 -7 -7 -133 191 -230 362 -84 147 -186 345 -232 450 l-24 54 44
19 c128 57 310 227 427 399 61 90 145 258 187 372 54 150 74 246 75 360 1 115
-8 143 -60 177 -82 53 -273 -96 -435 -342 -173 -261 -254 -497 -268 -775 l-6
-135 -67 171 c-45 113 -95 272 -148 465 -44 162 -83 301 -85 310 -4 11 9 20
51 33 184 58 425 236 568 420 180 231 293 458 303 612 8 105 -25 154 -102 154
-42 0 -133 -40 -213 -93 -95 -63 -285 -252 -374 -371 -118 -159 -234 -416
-254 -565 -4 -28 -9 -51 -13 -51 -10 0 -58 200 -75 310 -32 202 -66 522 -66
623 0 45 1 47 21 37 47 -26 268 34 430 116 145 72 262 158 394 289 141 139
209 227 267 343 53 106 62 175 26 216 -49 58 -168 46 -334 -33 -254 -122 -499
-330 -641 -545 -57 -86 -139 -257 -150 -311 -7 -38 -8 -36 -14 35 -7 72 4 389
16 495 19 163 29 232 46 335 28 162 20 150 82 133 66 -18 361 -11 457 11 312
71 668 268 799 443 47 62 58 110 36 153 -25 48 -66 64 -186 68 -187 7 -425
-55 -664 -173 -153 -76 -269 -160 -382 -279 -46 -47 -83 -81 -83 -76 0 16 38
154 77 280 44 145 152 418 210 533 43 86 45 88 66 74 41 -26 153 -66 248 -88
117 -27 391 -38 508 -19 195 30 429 102 536 165 131 76 178 166 121 228 -136
146 -697 151 -1053 8 -88 -35 -195 -91 -262 -138 -35 -24 -65 -42 -67 -41 -5
6 123 219 196 328 97 144 165 234 269 355 52 61 96 112 98 114 1 2 21 -13 43
-33 117 -105 344 -212 546 -255 347 -76 770 -34 863 85 114 145 -241 334 -722
385 -188 20 -459 -17 -605 -81 -25 -11 -47 -20 -50 -20 -21 0 287 287 422 394
71 57 103 75 146 85 235 55 450 181 651 381 144 142 230 254 290 375 108 218
27 315 -198 236z m-2406 -3413 c-3 -8 -6 -5 -6 6 -1 11 2 17 5 13 3 -3 4 -12
1 -19z"/>
<path d="M2213 10834 c-37 -19 -70 -59 -105 -129 -124 -247 -165 -694 -90
-985 37 -143 93 -276 137 -327 l33 -38 39 42 c78 84 172 299 215 488 26 117
36 394 18 532 -29 237 -85 380 -165 417 -40 19 -42 19 -82 0z"/>
<path d="M10505 10835 c-98 -49 -162 -265 -172 -580 -8 -249 25 -435 116 -645
41 -96 122 -225 151 -240 25 -13 51 14 95 100 106 209 151 520 116 795 -51
393 -180 633 -306 570z"/>
<path d="M11468 9875 c-105 -71 -228 -327 -294 -614 -44 -189 -43 -456 2 -639
21 -86 61 -172 80 -172 26 0 124 102 185 193 173 259 259 577 247 919 -6 164
-29 256 -77 307 -38 40 -90 42 -143 6z"/>
<path d="M12225 8730 c-49 -11 -90 -36 -155 -97 -150 -139 -331 -426 -399
-633 -58 -178 -86 -426 -61 -544 l12 -58 31 6 c84 16 300 207 416 365 221 304
359 807 256 930 -27 32 -55 40 -100 31z"/>
</g>
</svg>
